<svg fill="none" height="57" viewBox="0 0 38 57" width="38" xmlns="http://www.w3.org/2000/svg"><path d="m0 0h38v57h-38z" fill="none"/><path d="m19 28.5c0-2.5196 1.0009-4.9359 2.7825-6.7175s4.1979-2.7825 6.7175-2.7825 4.9359 1.0009 6.7175 2.7825 2.7825 4.1979 2.7825 6.7175-1.0009 4.9359-2.7825 6.7175-4.1979 2.7825-6.7175 2.7825-4.9359-1.0009-6.7175-2.7825-2.7825-4.1979-2.7825-6.7175z" fill="#1abcfe"/><path d="m0 47.5c0-2.5196 1.00089-4.9359 2.78249-6.7175 1.78159-1.7816 4.19795-2.7825 6.71751-2.7825h9.5v9.5c0 2.5196-1.0009 4.9359-2.7825 6.7175s-4.1979 2.7825-6.7175 2.7825c-2.51956 0-4.93592-1.0009-6.71751-2.7825-1.7816-1.7816-2.78249-4.1979-2.78249-6.7175z" fill="#0acf83"/><path d="m19 0v19h9.5c2.5196 0 4.9359-1.0009 6.7175-2.7825s2.7825-4.1979 2.7825-6.7175c0-2.51956-1.0009-4.93592-2.7825-6.71751-1.7816-1.7816-4.1979-2.78249-6.7175-2.78249z" fill="#ff7262"/><path d="m0 9.5c0 2.5196 1.00089 4.9359 2.78249 6.7175 1.78159 1.7816 4.19795 2.7825 6.71751 2.7825h9.5v-19h-9.5c-2.51956 0-4.93592 1.00089-6.71751 2.78249-1.7816 1.78159-2.78249 4.19795-2.78249 6.71751z" fill="#f24e1e"/><path d="m0 28.5c0 2.5196 1.00089 4.9359 2.78249 6.7175 1.78159 1.7816 4.19795 2.7825 6.71751 2.7825h9.5v-19h-9.5c-2.51956 0-4.93592 1.0009-6.71751 2.7825-1.7816 1.7816-2.78249 4.1979-2.78249 6.7175z" fill="#a259ff"/></svg>